{"title":"Paintoy.Graziella.XXX.HR.MP4.XXXmegathor.mp4","uid":10625847,"size":459900789,"categoryP":"porn","categoryS":"movies","magnet":"?xt=urn:btih:6f3fb8ae63b67e3cc63cc7200a9954447f3aaabe&amp;dn=Paintoy.Graziella.XXX.HR.MP4.XXXmegathor.mp4&amp;tr=udp%3A%2F%2Ftracker.openbittorrent.com%3A80&amp;tr=udp%3A%2F%2Fopen.demonii.com%3A1337&amp;tr=udp%3A%2F%2Ftracker.coppersurfer.tk%3A6969&amp;tr=udp%3A%2F%2Fexodus.desync.com%3A6969","seeders":1,"leechers":0,"uploader":"XXXmegathor","files":1,"time":1406229056,"description":"Paintoy.Graziella.XXX.HR.MP4.XXXmegathor\n\nSCREENIES &lt;a href=&quot;\nhttp://xxxtrapics.com/image/R3&quot; rel=&quot;nofollow&quot; target=&quot;_NEW&quot;&gt;\nhttp://xxxtrapics.com/image/R3&lt;/a&gt;\n\n\nDuration : 28mn 25s\nBit rate mode : Variable\nBit rate : 1 993 Kbps\nWidth : 1 104 pixels\nHeight : 832 pixels\nDisplay aspect ratio : 4:3\nFrame rate mode : Variable\nFrame rate : 29.970 fps\nMinimum frame rate : 14.985 fps\nMaximum frame rate : 29.970 fps\nColor space : YUV\nChroma subsampling : 4:2:0\nBit depth : 8 bits\nScan type : Progressive\nBits/(Pixel*Frame) : 0.072\nStream size : 405 MiB (92%)\nWriting library : x264 core 130 r2273 b3065e6\nEncoding settings : cabac=1 / ref=1 / deblock=1:0:0 / analyse=0x1:0x111 / me=hex / subme=2 / psy=1 / psy_rd=1.00:0.00 / mixed_ref=0 / me_range=16 / chroma_me=1 / trellis=0 / 8x8dct=0 / cqm=0 / deadzone=21,11 / fast_pskip=1 / chroma_qp_offset=0 / threads=12 / lookahead_threads=4 / sliced_threads=0 / nr=0 / decimate=1 / interlaced=0 / bluray_compat=0 / constrained_intra=0 / bframes=3 / b_pyramid=2 / b_adapt=1 / b_bias=0 / direct=1 / weightb=1 / open_gop=0 / weightp=1 / keyint=300 / keyint_min=30 / scenecut=40 / intra_refresh=0 / rc_lookahead=10 / rc=crf / mbtree=1 / crf=20.0 / qcomp=0.60 / qpmin=0 / qpmax=69 / qpstep=4 / vbv_maxrate=20000 / vbv_bufsize=25000 / crf_max=0.0 / nal_hrd=none / ip_ratio=1.40 / aq=1:1.00\nEncoded date : UTC 2014-04-08 06:03:26\nTagged date : UTC 2014-04-08 06:12:25\nColor primaries : BT.709-5, BT.1361, IEC 61966-2-4, SMPTE RP177\nTransfer characteristics : BT.709-5, BT.1361\nMatrix coefficients : BT.709-5, BT.1361, IEC 61966-2-4 709, SMPTE RP177\n\nAudio\nID : 2\nFormat : AAC\nFormat/Info : Advanced Audio Codec\nFormat profile : LC\nCodec ID : 40\nDuration : 28mn 25s\nBit rate mode : Variable\nBit rate : 160 Kbps\nMaximum bit rate : 219 Kbps\nChannel(s) : 2 channels\nChannel positions : Front: L R\nSampling rate : 48.0 KHz\nCompression mode : Lossy\nStream size : 32.5 MiB (7%)\nLanguage : English\nEncoded date : UTC 2014-04-08 06:03:26\nTagged date : UTC 2014-04-08 06:12:24\n\n","torrent":{"xt":"urn:btih:6f3fb8ae63b67e3cc63cc7200a9954447f3aaabe","amp;dn":"Paintoy.Graziella.XXX.HR.MP4.XXXmegathor.mp4","amp;tr":["udp%3A%2F%2Ftracker.openbittorrent.com%3A80","udp%3A%2F%2Fopen.demonii.com%3A1337","udp%3A%2F%2Ftracker.coppersurfer.tk%3A6969","udp%3A%2F%2Fexodus.desync.com%3A6969"],"infoHash":"6f3fb8ae63b67e3cc63cc7200a9954447f3aaabe","infoHashBuffer":{"type":"Buffer","data":[111,63,184,174,99,182,126,60,198,60,199,32,10,153,84,68,127,58,170,190]},"announce":[],"urlList":[]}}